<svg xmlns="http://www.w3.org/2000/svg" xmlns:xlink="http://www.w3.org/1999/xlink" viewBox="0 0 402.7 107"><defs><style>.cls-1{fill:none;}.cls-2{fill:#fff;}.cls-3{clip-path:url(#clip-path);}.cls-4{fill:#25408f;}.cls-5{fill:#00aeef;}.cls-6{fill:#006838;}.cls-7{fill:#3db149;}.cls-8{fill:#ee2a7b;}.cls-9{fill:#f6891f;}</style><clipPath id="clip-path"><rect class="cls-1" x="-143.53" y="-105.46" width="612" height="792"/></clipPath></defs><title>blocks_logo</title><g id="Layer_2" data-name="Layer 2"><g id="Layer_3" data-name="Layer 3"><rect class="cls-2" width="402.7" height="107"/><g class="cls-3"><path class="cls-4" d="M60.82,59.43c2.4,0,5.9,3.12,7.5,3.24l3.86,15c-.66,5.38-4.1,12.13-10.73,12.13H42.16c-2.4,0-5.72-2.85-5.72-5.9l-.08-18.26c0-2.4,2.88-6.21,5.67-6.32Z"/><path class="cls-5" d="M66.17,53.36c2.4,0,5.9,3.12,5.89,5.53l.11,18.74c0,2.4-3,6.06-6.12,6l-18.54.08c-2.4,0-5.72-2.81-5.72-5.9L41.7,59.54c0-2.4,2.88-6.21,5.67-6.32Z"/><path class="cls-6" d="M59.51,23.47c2.44,0,6,3.17,7.6,3.29L70.77,43.1c0,5-2.88,11.13-10.63,11.13H40.58c-2.44,0-5.8-2.89-5.8-6L34.69,32c0-7.07,2.53-8.9,8.58-13.81Z"/><path class="cls-7" d="M64.94,17.31c2.44,0,6,3.17,6,5.61l.11,19c0,2.44-3,6.15-6.21,6.06L46,48.07c-2.44,0-5.8-2.85-5.8-6l-.08-18.52c0-2.44,2.92-6.3,5.75-6.41Z"/><path class="cls-8" d="M42.79,34.88c2.74,0,6.85,3.56,6.84,6.3V62.56c0,2.74-4.24,6.82-7,6.82H22.44c-2.74,0-7.46-3.89-7.46-6.63L14.9,41.92c0-2.74,4.21-6.91,7.4-7Z"/><path class="cls-2" d="M22.37,37.79a5.73,5.73,0,0,0-2.89,1.67,5.24,5.24,0,0,0-1.68,2.47l.09,20.8c.17,1.17,3.28,3.74,4.56,3.74H42.66c1.19,0,4-2.75,4.08-3.92V41.19c-.05-1-2.61-3.4-3.94-3.4ZM42.66,72.28H22.45c-2.88,0-5.62-2.1-6.66-3-1.38-1.2-3.71-3.64-3.71-6.55L12,41.94c0-4.38,5.52-9.77,10.18-10H42.79c2.9,0,5.44,2,6.4,2.87a9,9,0,0,1,3.35,6.34V62.56c0,4.27-5.55,9.72-9.89,9.72"/></g><rect class="cls-2" x="46.73" y="47.93" width="17.85" height="7.61"/><g class="cls-3"><path class="cls-4" d="M119.68,65.53c3.9,0,6-1.78,6-4.85,0-4.07-2.34-5.85-7.35-5.85h-3.23V65.53ZM118.28,49c4.07,0,6.24-1.73,6.24-5.18,0-2.9-2.06-4.18-4.73-4.18h-4.74V49Zm2.62-16c7.24,0,12.25,3.06,12.25,9.64,0,4.85-2.28,7.8-6.68,9.19,5.24,1.51,8,4.62,8,8.91,0,8.19-5.46,11.53-14.48,11.53H102.24V67.48l4.18-1.67V39.63L102.24,38V33.22l12.81-.28Z"/></g><polygon class="cls-4" points="153.36 67.76 153.36 72.22 135.48 72.22 135.48 67.76 139.94 66.37 139.94 35.06 135.48 33.95 135.48 29.49 148.35 29.05 148.35 66.37 153.36 67.76"/><g class="cls-3"><path class="cls-4" d="M161.64,57.18c0,6.13,1.78,8.91,5.85,8.91s6-2.51,6-9.19c0-5.68-1.67-8.64-5.68-8.64s-6.13,2.23-6.13,8.91m20.44-.56c0,10-5.85,16.15-14.87,16.15S153,68,153,57.46c0-10,6-15.88,15-15.88s14,5.46,14,15"/><path class="cls-4" d="M210.49,68a18.48,18.48,0,0,1-12,4.73c-9.19,0-14.48-5.68-14.48-15.15,0-9.91,5.57-16,15.32-16a30.89,30.89,0,0,1,9.75,2l-.28,9.13h-5l-.78-4a16,16,0,0,0-3.84-.45c-4,0-6.52,2.67-6.52,8.24,0,6.07,2.34,9.58,7,9.58,3.9,0,6.35-1.95,8.08-3Z"/></g><polygon class="cls-4" points="226.97 53.33 230.76 47.65 228.31 46.87 228.31 42.42 242.68 42.14 242.68 46.87 238.78 47.6 233.6 54.89 239.84 66.42 244.07 67.76 244.07 72.22 233.77 72.22 226.86 58.63 223.3 58.63 223.3 66.37 226.36 67.76 226.36 72.22 210.49 72.22 210.49 67.76 214.94 66.37 214.94 35.06 210.49 33.95 210.49 29.49 223.3 29.05 223.3 53.33 226.97 53.33"/><g class="cls-3"><path class="cls-4" d="M251.5,66.09a18.72,18.72,0,0,0,4.68.56c3.06,0,4.57-.95,4.57-2.73,0-4.57-14.87-2.9-14.87-12.81,0-7,5.57-9.53,11.48-9.53a40.42,40.42,0,0,1,10.36,1.67l-.22,8.36h-4.74l-.84-3.34a13,13,0,0,0-3.84-.56c-2.4,0-3.84,1-3.84,2.84,0,4.51,14.87,2.56,14.87,12.2,0,6.41-5.18,10-12.81,10A48.48,48.48,0,0,1,246,71.55V62.47h5Z"/><path class="cls-4" d="M296.27,40.13a21.29,21.29,0,0,0-6.24-.89c-5.85,0-9.19,4.35-9.19,13.65,0,9,3.62,12.81,9.47,12.81,5.57,0,10.58-3.9,10.58-3.9l3.06,5a22,22,0,0,1-14.59,6.07c-11.31,0-17.83-6.8-17.83-19.72,0-13.09,7.35-20.89,18.77-20.89a38,38,0,0,1,13,2.62L303,45.48h-5.46Z"/></g><path class="cls-4" d="M325.28,42.75,320.88,56h8.58Zm20.89,29.47H328.46V67.48l4.18-1.5-1.33-4.07H318.93l-1.39,4,4.34,1.56v4.73H305.06V67.48l4.07-1.56,12.25-32.81,8.91-.17,12,33,3.9,1.56Z"/><g class="cls-3"><path class="cls-4" d="M365.55,65.53c5.4,0,9-3.17,9-13.2,0-9.36-3.17-12.7-8.63-12.7h-5v25.9Zm-13.26-25.9L348.12,38V33.22l12.81-.28h5.29c11.14,0,17.71,6.57,17.71,19.11s-7.24,20.16-18.55,20.16H348.12V67.48l4.18-1.67Z"/><path class="cls-9" d="M91.55,34.88c2.74,0,6.72,3.56,6.72,6.3V62.56c0,2.74-4.12,6.82-6.86,6.82H71.2c-2.74,0-7.46-3.89-7.46-6.63V41.92c0-2.74,4.12-6.91,7.31-7Z"/><path class="cls-2" d="M71.13,37.79c-1.29.1-4.42,2.58-4.48,4.14V62.74c.17,1.16,3.28,3.73,4.56,3.73H91.41c1.17,0,3.91-2.75,4-3.92V41.19c0-1-2.53-3.4-3.82-3.4ZM91.41,72.28H71.2c-2.88,0-5.62-2.1-6.66-3-1.39-1.2-3.71-3.64-3.71-6.55V41.92c0-4.37,5.48-9.76,10.09-9.94H91.55a9.87,9.87,0,0,1,6.36,2.89,9,9,0,0,1,3.27,6.32V62.56c0,4.36-5.39,9.72-9.76,9.72"/><path class="cls-2" d="M41.41,49.47a4.75,4.75,0,1,1-4.75-4.75,4.75,4.75,0,0,1,4.75,4.75"/><path class="cls-2" d="M90.14,49.47a4.75,4.75,0,1,1-4.75-4.75,4.75,4.75,0,0,1,4.75,4.75"/></g></g></g></svg>