<?xml version="1.0" encoding="UTF-8"?>
<!DOCTYPE svg PUBLIC "-//W3C//DTD SVG 1.1//EN" "http://www.w3.org/Graphics/SVG/1.1/DTD/svg11.dtd">
<!-- Creator: CorelDRAW X6 -->
<svg xmlns="http://www.w3.org/2000/svg" xml:space="preserve" width="210mm" height="60mm" version="1.1" style="shape-rendering:geometricPrecision; text-rendering:geometricPrecision; image-rendering:optimizeQuality; fill-rule:evenodd; clip-rule:evenodd"
viewBox="0 0 21000 6000"
 xmlns:xlink="http://www.w3.org/1999/xlink">
 <defs>
  <style type="text/css">
   <![CDATA[
    .fil0 {fill:none}
    .fil6 {fill:#0C6A38}
    .fil5 {fill:#28A8E0}
    .fil1 {fill:#294594}
    .fil4 {fill:#37AA44}
    .fil2 {fill:#E61E7A}
    .fil3 {fill:#F1891A}
    .fil7 {fill:#E5097F;fill-rule:nonzero}
   ]]>
  </style>
 </defs>
 <g id="Layer_x0020_1">
  <metadata id="CorelCorpID_0Corel-Layer"/>
  <rect class="fil0" width="21000" height="6000"/>
  <g id="_69496688">
   <path class="fil1" d="M10989 1744c0,226 -42,217 175,261 33,7 59,0 59,37l0 1583c0,32 -12,26 -39,35 -222,75 -169,69 -250,-65 -102,-171 -52,-113 -253,-23 -172,76 -417,94 -525,-92 -97,-167 -107,-447 -17,-620 109,-211 447,-127 457,-117 12,26 39,154 43,191 82,19 157,11 255,11 79,0 30,-274 44,-392 15,-125 14,-121 -246,-182 -203,-48 -439,-46 -629,30 -80,32 -129,64 -193,115 -62,50 -97,86 -142,166 -283,510 -124,1325 613,1325 198,0 370,-42 525,-144l123 -79c0,63 -20,191 43,191l786 0c58,0 32,-69 32,-149 0,-69 30,-85 -42,-128 -140,-83 -117,65 -117,-404 0,-45 41,-32 138,-32 47,0 92,120 113,163l280 549 553 0c18,-78 11,-108 11,-202 0,-49 -19,-56 -57,-71 -36,-14 -72,-24 -104,-34 -79,-25 -83,-42 -133,-143 -61,-123 -127,-231 -191,-351 -53,-99 -72,-114 -25,-177 31,-42 196,-294 238,-315 57,-28 198,-12 198,-78 0,-274 39,-234 -202,-234 -192,0 -298,13 -479,10 -123,-2 -106,-1 -106,202 0,80 62,69 117,96 -3,11 -153,276 -202,276 -192,0 -149,77 -149,-478 0,-60 7,-746 -4,-771 -22,-50 -189,-24 -232,-18 -82,11 -169,-2 -252,3 -49,3 -57,11 -117,10 -49,-1 -95,-6 -95,43z"/>
   <path class="fil1" d="M6164 3604l-159 -11 0 -415c-1,-133 -25,-117 149,-117 196,0 383,65 383,287 0,209 -162,255 -372,255zm-64 -871l-96 -11 0 -457c260,0 468,-43 468,234 0,87 -51,154 -110,187 -64,36 -166,47 -262,47zm-797 -786c0,248 -24,216 112,270 54,21 111,25 111,91l0 1265c0,40 -7,46 -36,60 -202,101 -188,-15 -188,301 0,25 18,43 43,43l999 0c75,0 215,-25 275,-44 466,-145 481,-677 291,-873 -52,-54 -114,-103 -184,-135 -26,-12 -48,-18 -74,-32 24,-32 69,-42 104,-67 37,-26 67,-51 95,-85 136,-161 170,-555 -102,-743 -251,-174 -680,-103 -958,-104 -89,-1 -177,0 -266,0 -76,0 -223,-22 -223,53z"/>
   <path class="fil1" d="M19087 3604c-87,0 -170,17 -170,-43l0 -1265c0,-55 105,-32 255,-32 407,0 436,377 436,701 0,181 -36,352 -110,464 -86,130 -202,174 -410,174zm-871 -1637c0,215 -30,201 167,269 29,10 57,14 57,50l0 1307c0,42 -59,52 -117,74 -126,50 -106,30 -106,266 0,58 79,43 138,43 119,-1 489,-7 560,3 48,7 109,10 173,8l179 -12c101,-10 213,-42 298,-74 352,-133 565,-554 565,-923 0,-199 -8,-365 -73,-544 -85,-233 -267,-417 -505,-494 -332,-108 -686,-36 -995,-36 -67,0 -135,0 -202,0 -79,0 -138,-21 -138,64z"/>
   <path class="fil1" d="M17025 2477c44,32 133,383 155,450 17,51 42,112 47,166l-404 0c10,-21 14,-47 23,-73 8,-24 17,-50 27,-80l153 -464zm-1063 1360c0,79 -24,66 11,138l882 0c19,-80 11,-128 11,-223 0,-63 -40,-63 -90,-80 -151,-49 -135,-40 -94,-158 11,-32 23,-81 57,-81l574 0c38,0 44,50 55,84 10,32 27,69 30,108 -220,116 -213,-14 -213,287 0,87 66,64 181,64l765 0c19,-80 11,-128 11,-223 0,-95 -144,-76 -203,-137 -20,-21 -453,-1247 -501,-1369l-112 -313c-15,-36 -14,-23 -33,-52 -137,0 -249,10 -394,10 -103,0 -99,44 -171,244l-449 1209c-19,54 -35,94 -55,147 -72,187 -36,115 -218,197 -73,33 -42,72 -42,149z"/>
   <path class="fil2" d="M1871 3008c-303,0 -320,-478 0,-478 80,0 125,26 168,66 103,97 93,252 5,341 -35,35 -106,72 -173,72zm-999 -606l0 1010c0,133 171,266 340,266l914 0c134,0 287,-138 287,-276l0 -999c0,-150 -113,-240 -248,-262 -149,-24 -276,7 -368,7l-384 -10c-202,-17 -311,-15 -442,89 -51,40 -100,110 -100,177z"/>
   <path class="fil3" d="M4432 3008c-301,0 -328,-478 11,-478 296,0 305,478 -11,478zm-988 -213c0,162 3,311 -10,468 -16,192 16,264 142,356 138,101 492,47 644,47l457 11c152,0 287,-142 287,-244l0 -1063c0,-99 -95,-195 -176,-217 -89,-24 -489,-6 -631,-6 -213,0 -480,-55 -609,71 -68,67 -111,108 -114,236l11 340z"/>
   <path class="fil1" d="M14188 2955c0,209 57,454 145,631 194,389 696,497 1096,388 186,-51 302,-129 443,-237 77,-60 52,-67 -28,-194 -30,-48 -49,-100 -94,-130 -37,9 -647,445 -944,-13 -128,-197 -232,-1156 381,-1156l178 14c39,6 109,14 130,40 19,24 50,213 75,265 81,19 147,11 244,11 99,0 55,-81 64,-244 19,-344 47,-330 -108,-381 -53,-18 -102,-30 -158,-44 -601,-150 -1126,-18 -1348,607 -39,109 -76,325 -76,445z"/>
   <path class="fil4" d="M2120 1191c-5,62 -42,81 -57,135 -16,54 -10,117 -9,174 1,115 6,248 -2,361 170,0 241,-6 358,56 83,45 161,123 216,198 68,93 74,180 74,340 0,245 -55,245 181,244 62,0 142,5 202,0 193,-14 -133,-370 311,-730 137,-111 212,-87 294,-131 0,-355 73,-569 -192,-733 -89,-55 -140,-43 -276,-43 -105,0 -184,-11 -298,-11 -106,0 -213,0 -319,0 -295,0 -324,-12 -484,138z"/>
   <path class="fil1" d="M8449 3168c0,-167 25,-332 160,-414 81,-49 196,-56 283,-7 224,127 160,655 87,759 -129,182 -385,162 -473,-11 -37,-74 -56,-218 -56,-326zm244 840c191,0 363,-31 510,-138 37,-27 79,-59 106,-96 191,-251 212,-374 212,-712 0,-143 -54,-309 -121,-421 -67,-112 -177,-196 -298,-244 -360,-144 -896,-42 -1068,412 -79,210 -91,455 -33,679 37,143 84,244 182,339 0,0 14,12 17,15 12,11 16,15 28,25 106,90 310,141 465,141z"/>
   <path class="fil5" d="M2143 3965c0,219 -34,377 97,502 146,138 243,102 491,101 198,-1 397,0 595,1 316,1 306,-170 404,-200 3,-30 12,-56 17,-88 12,-70 -1,-243 -7,-304 -184,-43 -283,-53 -428,-199 -45,-45 -60,-59 -97,-115 -32,-48 -48,-88 -60,-153 -16,-93 -4,-107 1,-192 1,-11 -9,-193 -11,-202 -10,-52 -53,-32 -181,-32 -315,0 -266,-42 -266,159 0,178 15,250 -49,376 -181,353 -445,322 -507,347z"/>
   <path class="fil1" d="M12849 2828c0,384 294,439 572,544 89,33 203,64 203,169 0,170 -425,121 -451,79 -17,-27 -14,-126 -37,-175 -44,-10 -276,-40 -276,32 0,496 -37,458 89,485 286,62 702,91 942,-81 221,-158 279,-500 93,-689 -204,-208 -667,-196 -667,-364 0,-200 348,-142 378,-91 27,45 15,155 79,155 286,0 224,18 237,-92 11,-97 7,-219 7,-322 0,-53 -23,-58 -96,-74 -284,-60 -643,-128 -888,57 -97,74 -185,202 -185,368z"/>
   <path class="fil1" d="M7057 1712c-18,78 -11,99 -11,191 0,82 100,86 234,117 27,115 11,1350 11,1573 0,122 -197,62 -236,147 -4,8 -39,236 34,236l893 0c52,0 32,-84 32,-223 0,-56 -202,-81 -255,-106 -26,-110 -12,-1526 -11,-1839 1,-189 30,-115 -372,-117 -76,0 -259,7 -319,21z"/>
   <path class="fil1" d="M3730 4368c-98,31 -88,202 -404,200 -198,-1 -397,-2 -595,-1 -249,2 -346,38 -491,-101 -131,-124 -97,-283 -97,-502 -52,0 -104,1 -156,0 -82,-1 -78,-19 -138,10 0,138 0,276 0,414 0,175 -22,247 58,357 55,76 138,151 261,154 140,3 285,-1 426,-1 245,0 612,35 787,-42 156,-69 272,-246 326,-408 10,-31 14,-58 25,-82z"/>
   <path class="fil6" d="M2051 1861c8,-114 3,-246 2,-361 0,-57 -6,-120 9,-174 15,-53 52,-73 57,-135 -63,33 -221,191 -262,253 -58,87 -125,269 -93,406 78,18 226,-2 287,11z"/>
   <path class="fil7" d="M14475 4841l-80 25 0 71 289 0 0 -71 -80 -25 0 -394 80 0 21 80 78 0 0 -180 -486 0 0 180 77 0 21 -80 80 0 0 394zm852 -613c0,42 21,65 60,65 33,0 62,-23 62,-65 0,-41 -21,-65 -60,-65 -33,0 -62,24 -62,65zm183 0c0,42 21,65 60,65 33,0 62,-23 62,-65 0,-41 -20,-65 -60,-65 -32,0 -62,24 -62,65zm-140 219l65 -25 0 -75 -257 4 0 71 62 25 0 264c0,162 67,236 235,236 180,0 242,-87 242,-249l0 -251 63 -25 0 -75 -258 4 0 71 65 25 0 251c0,99 -19,147 -108,147 -82,0 -110,-38 -110,-134l0 -264zm826 490l253 0 0 -71 -60 -25 0 -136 29 0c44,0 52,13 80,77l70 155 155 0 0 -71 -57 -21 -56 -115c-13,-28 -26,-44 -35,-54 57,-28 95,-80 95,-158 0,-114 -80,-171 -218,-171l-64 0 -193 4 0 71 63 25 0 394 -63 25 0 71zm193 -320l0 -170 69 0c52,0 84,34 84,82 0,56 -39,88 -105,88l-48 0zm730 320l255 0 0 -71 -63 -25 0 -159 61 0 115 159 -50 25 0 71 255 0 0 -71 -63 -25 -156 -214 110 -183 80 -23 0 -74 -155 4 -140 239 -57 0 0 -144 63 -25 0 -74 -255 4 0 70 63 25 0 395 -63 25 0 71zm1027 -709c0,42 21,65 60,65 33,0 62,-23 62,-65 0,-41 -20,-65 -60,-65 -32,0 -62,24 -62,65zm-63 709l255 0 0 -71 -63 -25 0 -394 63 -25 0 -75 -255 4 0 71 63 25 0 394 -63 25 0 71zm797 0l255 0 0 -71 -63 -25 0 -109 152 -287 58 -23 0 -75 -226 4 0 71 46 18 -89 179 -84 -180 43 -18 0 -75 -237 4 0 71 54 23 153 288 0 108 -63 25 0 71zm1165 -352l-169 0 0 -138 138 0 21 61 75 0 0 -162 -235 0 -193 4 0 71 63 25 0 394 -63 25 0 71 437 0 0 -169 -75 0 -19 69 -150 0 0 -159 169 0 0 -92z"/>
  </g>
 </g>
</svg>
